HIERARCHY
ROOT Hips
{
	OFFSET 0.00000 0.00000 0.00000
	CHANNELS 6 Xposition Yposition Zposition Zrotation Yrotation Xrotation 
	JOINT LHipJoint
	{
		OFFSET 0 0 0
		CHANNELS 3 Zrotation Yrotation Xrotation
		JOINT LeftHip
		{
			OFFSET 1.56741 -1.82513 0.67319
			CHANNELS 3 Zrotation Yrotation Xrotation
			JOINT LeftKnee
			{
				OFFSET 2.35708 -6.47604 0.00000
				CHANNELS 3 Zrotation Yrotation Xrotation
				JOINT LeftAnkle
				{
					OFFSET 2.70636 -7.43567 0.00000
					CHANNELS 3 Zrotation Yrotation Xrotation
					JOINT LeftToe
					{
						OFFSET 0.20427 -0.56122 2.08535
						CHANNELS 3 Zrotation Yrotation Xrotation
						End Site
						{
							OFFSET 0.00000 -0.00000 1.08535
						}
					}
				}
			}
		}
	}
	JOINT RHipJoint
	{
		OFFSET 0 0 0
		CHANNELS 3 Zrotation Yrotation Xrotation
		JOINT RightHip
		{
			OFFSET -1.51422 -1.82513 0.67319
			CHANNELS 3 Zrotation Yrotation Xrotation
			JOINT RightKnee
			{
				OFFSET -2.48824 -6.83638 0.00000
				CHANNELS 3 Zrotation Yrotation Xrotation
				JOINT RightAnkle
				{
					OFFSET -2.70033 -7.41909 0.00000
					CHANNELS 3 Zrotation Yrotation Xrotation
					JOINT RightToe
					{
						OFFSET -0.19750 -0.54263 2.22151
						CHANNELS 3 Zrotation Yrotation Xrotation
						End Site
						{
							OFFSET -0.00000 -0.00000 1.14915
						}
					}
				}
			}
		}
	}
	JOINT lowerback
	{
		OFFSET 0 0 0
		CHANNELS 3 Zrotation Yrotation Xrotation
		JOINT Chest
		{
			OFFSET -0.01567 2.12874 -0.15842
			CHANNELS 3 Zrotation Yrotation Xrotation
			JOINT Chest2
			{
				OFFSET 0.06098 2.13326 -0.01043
				CHANNELS 3 Zrotation Yrotation Xrotation
				JOINT lowerneck
				{
					OFFSET 0 0 0
					CHANNELS 3 Zrotation Yrotation Xrotation
					JOINT Neck
					{
						OFFSET -0.05040 1.78432 0.13387
						CHANNELS 3 Zrotation Yrotation Xrotation
						JOINT Head
						{
							OFFSET -0.00180 1.76880 -0.33303
							CHANNELS 3 Zrotation Yrotation Xrotation
							End Site
							{
								OFFSET 0.00734 1.81249 -0.12719
							}
						}
					}
				}
				JOINT LeftCollar
				{
					OFFSET 0 0 0
					CHANNELS 3 Zrotation Yrotation Xrotation
					JOINT LeftShoulder
					{
						OFFSET 3.72199 0.94188 -0.54317
CHANNELS 3 Zrotation Xrotation Yrotation
						JOINT LeftElbow
						{
OFFSET 0 -5.146010 0.000000
CHANNELS 3 Zrotation Xrotation Yrotation
							JOINT LeftWrist
							{
OFFSET 0 -3.644520 -0.000000
CHANNELS 3 Zrotation Xrotation Yrotation
								JOINT lhand
								{
									OFFSET 0 0 0
CHANNELS 3 Zrotation Xrotation Yrotation
									JOINT LFingers
									{
OFFSET 0 -0.562280 0.000000
CHANNELS 3 Zrotation Xrotation Yrotation
										End Site
										{
OFFSET 0 -0.453320 0.000000
										}
									}
								}
								JOINT LThumb
								{
OFFSET 0 0.000000 0.000000
CHANNELS 3 Zrotation Xrotation Yrotation
									End Site
									{
OFFSET 0 -0.460250 0.460250
									}
								}
							}
						}
					}
				}
				JOINT RightCollar
				{
					OFFSET 0 0 0
					CHANNELS 3 Zrotation Yrotation Xrotation
					JOINT RightShoulder
					{
						OFFSET -3.30253 1.22679 -0.46941
CHANNELS 3 Zrotation Xrotation Yrotation
						JOINT RightElbow
						{
OFFSET 0 -5.339130 0.000000
CHANNELS 3 Zrotation Xrotation Yrotation
							JOINT RightWrist
							{
OFFSET 0 -3.564780 -0.000000
CHANNELS 3 Zrotation Xrotation Yrotation
								JOINT rhand
								{
									OFFSET 0 0 0
CHANNELS 3 Zrotation Xrotation Yrotation
									JOINT RFingers
									{
OFFSET 0 -0.857470 0.000000
CHANNELS 3 Zrotation Xrotation Yrotation
										End Site
										{
OFFSET 0 -0.691320 0.000000
										}
									}
								}
								JOINT RThumb
								{
OFFSET 0 0.000000 0.000000
CHANNELS 3 Zrotation Xrotation Yrotation
									End Site
									{
OFFSET 0 -0.701870 0.701870
									}
								}
							}
						}
					}
				}
			}
		}
	}
}
MOTION
Frames: 8
Frame Time: 0.008333333333333333
2.634200 15.851100 17.068200 51.596600 -85.216400 -51.536300 0.000000 0.000000 0.000000 -3.256300 -11.480800 -26.289500 6.228400 14.646100 45.891800 0.477400 -8.136000 -12.733100 2.566200 -9.957300 -28.838600 0.000000 0.000000 0.000000 19.375200 -11.666200 -19.154100 -12.697200 -18.670100 68.182500 -2.717200 5.115800 -30.078400 -0.130500 2.328700 -6.415100 -4.088000 2.071300 11.736900 -1.994200 2.035300 4.181500 -0.045400 0.925100 -2.273200 -12.826900 1.890500 -8.503400 2.190700 3.890700 23.771900 3.232800 0.722900 8.553000 0.000000 -0.000000 0.000000 0.139100 -30.594700 -46.438900 153.034500 -38.146300 110.522200 8.608200 -10.659200 -9.320800 0.000000 0.000000 0.000000 -7.125000 0.000000 0.000000 -15.802300 38.926800 -2.436100 0.000000 -0.000000 0.000000 -5.424900 0.464700 52.359000 -151.703500 -39.387800 -109.688700 -20.429300 -0.397200 -20.740600 0.000000 0.000000 0.000000 7.125000 0.000000 -0.000000 5.174100 8.050000 4.417100
3.059114 16.364230 16.856409 32.110974 -80.107746 -31.704908 0.000000 0.000000 0.000000 -6.016790 -11.294455 -25.666725 4.237094 12.464805 37.403602 -0.052399 -7.614264 -3.989643 2.661091 -10.117235 -29.364506 0.000000 0.000000 0.000000 17.965776 -13.780439 -22.081072 -12.318231 -18.521588 66.993532 -1.409812 7.435497 -21.210452 -0.007518 -0.557801 1.532836 -6.433812 1.948914 13.008434 -1.669747 1.509368 4.904265 1.657477 0.620656 -2.248376 -12.183896 0.634899 -7.100541 3.081540 1.676628 22.196131 3.193153 -0.075910 7.917212 0.000000 0.000000 0.000000 1.266123 -31.054821 -48.714954 151.636984 -39.448281 109.646453 9.953811 -9.051246 -9.753095 0.000000 0.000000 0.000000 -7.125000 0.000000 0.000000 -14.772773 39.453005 -2.073725 0.000000 0.000000 0.000000 -7.492243 0.216192 51.848038 -153.600221 -37.600761 -110.869507 -22.529410 -1.711610 -21.672117 0.000000 0.000000 0.000000 7.125000 0.000000 0.000000 3.921057 6.745099 3.440202
3.514492 16.933769 16.633441 21.367997 -76.110266 -18.511376 0.000000 0.000000 0.000000 -6.408948 -12.803462 -25.721371 2.603642 10.022609 29.051164 -0.007936 1.552092 -1.859342 3.417149 -11.314188 -33.378950 0.000000 0.000000 0.000000 18.603775 -14.748462 -28.085467 -11.946274 -18.367812 65.818416 -0.194485 7.190951 -8.608811 -0.199120 2.786958 -7.691279 -4.813187 1.163208 13.204649 -2.138293 0.655009 4.792853 0.385688 0.224526 -2.392368 -11.000261 -0.312973 -7.492328 5.445127 -0.155567 20.755332 3.619688 -0.545844 7.618906 0.000000 0.000000 0.000000 3.251794 -29.761074 -50.105071 151.828462 -39.273600 109.767919 9.465915 -8.359206 -9.581494 0.000000 0.000000 0.000000 -7.125000 0.000000 0.000000 -15.144482 39.246640 -2.206215 0.000000 0.000000 0.000000 -5.900375 -0.979760 52.447789 -154.281521 -36.929337 -111.282041 -18.923230 0.836906 -20.975341 0.000000 0.000000 0.000000 7.125000 0.000000 0.000000 6.152242 8.021732 5.263774
4.013881 17.406753 16.530129 9.750184 -74.015086 -5.674867 0.000000 0.000000 0.000000 -4.168345 -15.271037 -24.929978 3.095189 10.846372 31.764738 0.017325 5.311073 -8.094429 1.461702 -7.597375 -21.521325 0.000000 0.000000 0.000000 18.448519 -12.351047 -33.099098 -12.020288 -18.399168 66.053163 0.350225 11.285162 -0.490182 -0.085014 -1.872567 5.153974 -2.506667 0.659862 13.596780 0.845218 0.412053 4.626695 2.237104 0.121946 -2.776494 -11.998473 -1.149138 -7.987475 5.201253 -0.958591 19.246369 3.613035 -0.951957 7.301191 0.000000 0.000000 0.000000 0.621983 -28.424900 -50.419433 152.539894 -38.614404 110.215064 10.992904 -6.623851 -9.968597 0.000000 0.000000 0.000000 -7.125000 0.000000 0.000000 -13.943140 39.747529 -1.846663 0.000000 0.000000 0.000000 -11.131184 -3.081895 50.372453 -155.941481 -35.226113 -112.259720 -14.181744 -1.025071 -20.072374 0.000000 0.000000 0.000000 7.125000 0.000000 0.000000 9.140476 9.537170 7.599635
4.479416 17.626475 16.434590 21.062890 -76.093187 -17.581287 0.000000 0.000000 0.000000 -7.890214 -11.069136 -22.570764 5.949098 14.370202 44.760793 0.083119 1.650695 -6.317128 2.532568 -9.896826 -28.643171 0.000000 0.000000 0.000000 11.573033 -6.073604 -34.187724 -11.705165 -18.262771 65.050654 -0.161357 7.316735 -8.229128 -0.279253 -3.389919 9.367173 -4.607913 1.428862 14.892345 1.303549 1.078538 4.905789 3.796762 0.434955 -3.256388 -10.440375 -1.431882 -8.492490 4.659828 -1.380280 18.213937 3.124597 -1.046900 7.076159 0.000000 0.000000 0.000000 -0.465306 -27.455954 -50.395132 152.953176 -38.223784 110.471952 11.393419 -7.246065 -10.104886 0.000000 0.000000 0.000000 -7.125000 0.000000 0.000000 -13.633741 39.914647 -1.746684 0.000000 0.000000 0.000000 -12.563143 -6.456422 49.834801 -154.990674 -36.212457 -111.704127 -19.439188 0.574701 -20.887529 0.000000 0.000000 0.000000 7.125000 0.000000 0.000000 5.816138 8.039813 4.972875
4.876310 17.707330 16.396880 30.345422 -77.774202 -27.989494 0.000000 0.000000 0.000000 -10.102033 -7.480051 -16.195033 8.553752 16.511497 54.533081 -0.074554 -5.159462 -0.336598 2.528493 -9.877537 -28.591685 0.000000 0.000000 0.000000 5.296057 0.474861 -33.038902 -9.892002 -17.347718 59.125564 -0.402845 -1.621189 -12.728680 -1.720686 -8.257812 23.500213 -5.133625 0.975329 16.534321 1.934144 0.339530 4.527120 4.913499 0.106552 -4.464453 -9.773523 -0.508430 -8.445357 5.067413 -0.307841 18.126499 3.237706 -0.457241 6.941794 0.000000 0.000000 0.000000 -1.105082 -26.167806 -49.358769 152.882111 -38.291390 110.427847 12.042712 -6.315467 -10.327283 0.000000 0.000000 0.000000 -7.125000 0.000000 0.000000 -13.130198 40.188582 -1.588937 0.000000 0.000000 0.000000 -12.389218 -8.451846 50.771979 -153.275986 -37.914129 -110.670709 -19.989694 3.733879 -20.389389 0.000000 0.000000 0.000000 7.125000 0.000000 0.000000 5.429207 8.479186 4.590847
5.197449 17.388378 16.361018 36.285714 -77.797390 -33.136786 0.000000 0.000000 0.000000 -12.433118 -7.038302 -7.478135 7.436902 15.686589 50.503860 -0.869098 -17.896997 14.825417 2.722247 -10.225576 -29.715477 0.000000 0.000000 0.000000 -0.549326 4.411783 -35.390005 -8.720721 -16.624576 55.119056 0.405963 -11.362798 -6.198119 -0.884804 -5.945622 16.642714 -4.966285 0.755399 15.486169 2.160654 0.167157 3.972775 5.087274 0.049066 -4.471597 -5.214416 -1.360643 -7.956680 4.115760 -2.001052 16.970291 2.015755 -1.036511 6.557343 0.000000 0.000000 0.000000 -1.271594 -26.816970 -50.338474 152.163110 -38.965647 109.978980 12.340755 -6.108090 -10.264313 0.000000 0.000000 0.000000 -7.125000 0.000000 0.000000 -12.860577 40.150835 -1.567207 0.000000 0.000000 0.000000 -10.163077 -8.669686 47.474768 -151.992702 -39.122916 -109.871704 -20.535838 4.408332 -20.278989 0.000000 0.000000 0.000000 7.125000 0.000000 0.000000 5.070994 8.515752 4.281485
5.536917 16.719047 16.336891 36.996610 -76.749679 -31.300066 0.000000 0.000000 0.000000 -16.449154 -9.358923 1.753442 4.280535 12.521206 37.606833 -0.996252 -18.353367 13.173385 2.210534 -9.272435 -26.665715 0.000000 0.000000 0.000000 -5.024526 3.910725 -42.304154 -10.075801 -17.450607 59.739161 -0.019040 -3.857221 -6.243707 -0.033171 0.437740 -1.204892 -4.480732 -0.431837 13.325152 3.044562 -1.155723 2.851849 5.959054 -0.565192 -4.308332 -3.596204 -1.573150 -9.221116 4.354718 -2.486816 16.326032 1.774501 -1.126365 6.580123 0.000000 0.000000 0.000000 -2.400164 -26.824017 -49.159343 152.041166 -39.078277 109.902258 12.068941 -5.824795 -10.290506 0.000000 0.000000 0.000000 -7.125000 0.000000 0.000000 -13.099435 40.154233 -1.596343 0.000000 0.000000 0.000000 -9.343034 -7.705456 45.861745 -152.051926 -39.068093 -109.908982 -21.606211 6.957286 -18.562250 0.000000 0.000000 0.000000 7.125000 0.000000 0.000000 4.252183 10.164388 3.444956
